<?xml version="1.0" standalone="no"?>
<!DOCTYPE svg PUBLIC "-//W3C//DTD SVG 20010904//EN"
 "http://www.w3.org/TR/2001/REC-SVG-20010904/DTD/svg10.dtd">
<svg version="1.0" xmlns="http://www.w3.org/2000/svg"
 width="700.000000pt" height="700.000000pt" viewBox="0 0 700.000000 700.000000"
 preserveAspectRatio="xMidYMid meet">
<metadata>
Created by potrace 1.11, written by Peter Selinger 2001-2013
</metadata>
<g transform="translate(0.000000,700.000000) scale(0.100000,-0.100000)"
fill="#000000" stroke="none">
<path d="M2348 6558 c-266 -26 -503 -230 -577 -495 -18 -66 -20 -105 -21 -440
0 -202 -2 -368 -3 -370 -2 -1 -267 -3 -589 -3 -654 -1 -639 0 -788 -73 -113
-55 -237 -176 -293 -287 -75 -149 -71 -108 -74 -782 l-4 -608 3501 0 3501 0
-4 608 c-3 665 0 628 -66 765 -77 159 -235 294 -411 352 -6 2 -68 15 -95 20
-11 2 -280 4 -597 4 l-578 1 0 358 c0 398 -6 445 -63 567 -35 73 -104 165
-164 219 -84 75 -223 142 -338 162 -51 9 -2248 11 -2337 2z m2023 -876 c5 -27
3 -415 -1 -423 -4 -5 -341 -8 -876 -7 l-869 3 -1 205 c0 113 1 210 3 216 5 13
1742 19 1744 6z"/>
<path d="M17 3062 c-16 -3 -17 -72 -17 -1031 l1 -1027 24 -77 c75 -245 281
-433 523 -479 68 -13 5784 -16 5878 -3 70 10 60 8 109 24 170 57 314 184 395
347 73 145 70 103 68 1235 l-3 1012 -1308 1 c-719 0 -1308 -1 -1308 -4 -1 -3
-2 -162 -4 -355 -2 -381 -3 -388 -61 -449 -15 -16 -47 -37 -71 -48 -42 -18
-73 -19 -742 -19 -691 -1 -699 0 -747 21 -58 25 -109 86 -121 145 -5 22 -9
190 -8 373 0 182 -2 332 -5 333 -18 2 -2590 3 -2603 1z"/>
</g>
</svg>
